<?xml version="1.0" encoding="UTF-8"?>
<svg id="Capa_1" data-name="Capa 1" xmlns="http://www.w3.org/2000/svg" viewBox="0 0 150 150">
  <defs>
    <style>
      .cls-1 {
        fill: #dadada;
      }
    </style>
  </defs>
  <path class="cls-1" d="m4,110.08V40.48c.07-.01.08-.06.08-.12,0-1.39.21-2.76.42-4.13.21-1.32.49-2.63.85-3.92.58-2.14,1.34-4.22,2.29-6.22,1-2.11,2.16-4.13,3.52-6.03,1.13-1.58,2.36-3.07,3.71-4.47.82-.84,1.68-1.64,2.56-2.42.97-.86,2-1.65,3.05-2.41,1.73-1.24,3.57-2.31,5.49-3.22,1.05-.5,2.12-.99,3.2-1.42.89-.35,1.82-.62,2.73-.9.66-.2,1.33-.42,2-.55,1.44-.27,2.88-.57,4.34-.73,1.16-.13,2.32-.29,3.48-.29,22.68.03,45.37-.13,68.05.06.84,0,1.67.09,2.5.16,1.05.09,2.08.24,3.11.43,2.2.4,4.34.99,6.45,1.76,2.67.98,5.19,2.22,7.58,3.75,1.75,1.12,3.41,2.37,4.95,3.76.85.77,1.68,1.55,2.46,2.41.9,1,1.8,2.01,2.6,3.08,1.01,1.35,1.93,2.77,2.78,4.24,1.15,1.99,2.08,4.06,2.85,6.22.97,2.71,1.62,5.49,1.97,8.35.18,1.51.31,3.02.31,4.53.02,19.37.02,38.75,0,58.12,0,2.94.1,5.89-.07,8.83-.05.86-.07,1.72-.17,2.58-.12,1.04-.25,2.07-.43,3.1-.28,1.6-.69,3.17-1.17,4.72-.37,1.18-.81,2.32-1.28,3.46-.8,1.95-1.79,3.79-2.92,5.57-.81,1.27-1.68,2.49-2.63,3.66-.63.77-1.27,1.54-1.95,2.26-.74.78-1.49,1.56-2.32,2.25-.64.53-1.21,1.13-1.87,1.62-1.18.86-2.35,1.73-3.6,2.51-1.84,1.14-3.76,2.14-5.76,2.97-2.21.92-4.5,1.61-6.85,2.1-1.62.34-3.25.58-4.9.69-.35.02-.74-.04-1.08.15H40.92c-.02-.06-.07-.08-.13-.08-.7.03-1.39-.11-2.08-.16-1.23-.08-2.44-.31-3.65-.55-1.37-.27-2.72-.65-4.05-1.09-2.71-.88-5.3-2.03-7.75-3.48-3.57-2.1-6.72-4.71-9.47-7.81-2.14-2.41-3.94-5.06-5.44-7.92-.78-1.48-1.44-3.02-2.03-4.59-.34-.89-.63-1.8-.88-2.72-.4-1.47-.74-2.96-.96-4.48-.18-1.21-.35-2.41-.41-3.63,0-.14.09-.31-.08-.42Zm142.3-34.74c0-10.65,0-21.31,0-31.96,0-1.68-.11-3.34-.29-5.01-.15-1.4-.39-2.77-.69-4.14-.63-2.87-1.61-5.62-2.89-8.25-1.11-2.27-2.43-4.42-4-6.42-.9-1.16-1.85-2.28-2.86-3.35-.49-.52-1.02-1-1.54-1.49-.92-.85-1.87-1.66-2.87-2.4-1.73-1.3-3.57-2.44-5.51-3.41-1.4-.7-2.82-1.36-4.29-1.88-2.84-1.01-5.74-1.74-8.75-2.04-1.34-.13-2.69-.28-4.04-.28-21.14,0-42.28,0-63.42,0-1.96,0-3.92-.02-5.88.18-1.29.13-2.57.33-3.84.56-1.38.25-2.75.64-4.09,1.08-1.39.45-2.76.97-4.09,1.59-2.13,1-4.18,2.13-6.09,3.49-1.41,1-2.77,2.07-4.02,3.26-1.21,1.15-2.37,2.34-3.42,3.64-.9,1.12-1.76,2.28-2.55,3.48-1.48,2.24-2.69,4.6-3.63,7.11-.18.48-.16.51.36.46.04,0,.08,0,.12-.02.69-.11,1.38-.24,2.08-.32.83-.1,1.65-.28,2.49-.37,1-.1,1.99-.27,2.99-.4.7-.09,1.39-.2,2.09-.28,1.05-.12,2.09-.33,3.13-.48,1.03-.15,2.08-.24,3.11-.44,1.16-.23,2.35-.3,3.52-.48.91-.14,1.83-.28,2.75-.37.91-.08,1.82-.27,2.73-.41.69-.11,1.38-.23,2.07-.33.79-.12,1.58-.25,2.37-.34.77-.08,1.53-.22,2.3-.28.91-.07,1.82-.28,2.73-.4,2.03-.26,3.85.31,5.48,1.48,1.19.86,1.97,2.05,2.51,3.41.39.99.44,2.04.54,3.07.12,1.28.22,2.57.34,3.85.12,1.23.23,2.46.34,3.68.12,1.28.23,2.57.34,3.85.11,1.23.22,2.46.34,3.68.11,1.24.22,2.48.34,3.73.12,1.28.22,2.57.34,3.85.09.91.17,1.82.25,2.73.11,1.26.22,2.51.34,3.77.09.95.18,1.91.25,2.86.1,1.46.37,2.89.69,4.31.45,1.97,1.07,3.87,1.95,5.69.73,1.5,1.59,2.92,2.65,4.23,1.11,1.36,2.36,2.55,3.79,3.54,1.54,1.07,3.23,1.85,5.03,2.38,1.32.38,2.66.67,4.03.75,2.15.12,4.3.09,6.45-.23.99-.15,1.97-.34,2.94-.57,1.15-.28,2.26-.68,3.37-1.11,2.13-.83,4.06-1.98,5.77-3.48,2.33-2.04,3.93-4.59,4.93-7.5.39-1.14.63-2.33.86-3.52.26-1.41.32-2.84.38-4.26.05-1.1-.08-2.2-.15-3.3-.03-.51-.1-1.02-.18-1.52-.13-.85-.29-1.7-.42-2.55-.12-.79-.22-1.58-.34-2.36-.16-1.01-.34-2.02-.5-3.03-.13-.8-.23-1.6-.35-2.4-.13-.8-.28-1.59-.41-2.38-.13-.8-.19-1.61-.35-2.4-.21-1.02-.33-2.05-.49-3.08-.12-.78-.27-1.57-.36-2.36-.09-.79-.29-1.56-.41-2.34-.16-1.03-.28-2.07-.44-3.1-.18-1.16-.4-2.32-.58-3.48-.15-.96-.26-1.93-.42-2.89-.22-1.38-.55-2.74-.43-4.16.06-.79.27-1.53.58-2.23.46-1.04,1.11-1.97,2.01-2.72.89-.73,1.85-1.27,2.97-1.52,1.29-.29,2.6-.42,3.9-.6,1.33-.18,2.64-.49,4.02-.36,1.89.17,3.48.91,4.8,2.22,1.46,1.46,2.04,3.32,2.22,5.33.08.9.22,1.79.35,2.68.13.89.27,1.77.4,2.66.13.88.25,1.76.37,2.64.13.93.26,1.85.39,2.78.12.86.23,1.73.35,2.59.13.91.28,1.83.41,2.74.13.88.25,1.75.37,2.63.13.95.26,1.89.39,2.84.09.68.18,1.37.28,2.05.16,1.07.33,2.13.48,3.2.13.9.23,1.81.36,2.71.13.89.28,1.78.4,2.67.13.9.22,1.81.35,2.72.15,1.06.37,2.12.49,3.19.14,1.18.3,2.36.46,3.54.18,1.3.23,2.61.3,3.91.11,2.1.03,4.2-.22,6.3-.1.81-.15,1.63-.29,2.43-.27,1.52-.58,3.03-.98,4.52-.59,2.18-1.36,4.3-2.31,6.34-.89,1.92-1.94,3.75-3.16,5.49-1.02,1.46-2.14,2.85-3.38,4.14-1.32,1.38-2.73,2.67-4.24,3.84-1.72,1.34-3.55,2.51-5.46,3.54-1.77.95-3.62,1.74-5.51,2.43-1.25.46-2.51.87-3.79,1.22-1.46.4-2.93.77-4.42,1-.86.13-1.7.33-2.58.37-.61.02-1.22.09-1.82.17-1.13.15-2.28.26-3.41.22-1.4-.05-2.81.03-4.2-.14-.7-.09-1.42-.08-2.12-.18-1.49-.23-2.97-.48-4.44-.83-2.61-.63-5.13-1.53-7.55-2.69-1.82-.87-3.55-1.91-5.2-3.08-1.47-1.04-2.87-2.16-4.16-3.41-1-.96-1.97-1.95-2.87-3.02-.88-1.06-1.73-2.14-2.51-3.27-1.36-1.98-2.55-4.05-3.56-6.24-.58-1.27-1.11-2.56-1.6-3.88-.86-2.34-1.52-4.74-2.02-7.18-.21-1.03-.41-2.07-.52-3.12-.07-.64-.17-1.28-.27-1.92-.13-.91-.28-1.82-.4-2.73-.1-.7-.21-1.39-.28-2.09-.07-.72-.21-1.44-.31-2.16-.1-.67-.18-1.34-.28-2-.13-.88-.27-1.77-.4-2.65-.14-.93-.21-1.88-.51-2.78-.77-2.32-2.31-3.88-4.58-4.71-1.12-.41-2.28-.53-3.49-.41-.95.1-1.88.3-2.83.38-.87.08-1.73.3-2.6.4-.92.11-1.84.23-2.75.37-1.36.21-2.72.38-4.09.56-1.04.14-2.07.32-3.11.45-1.13.14-2.25.37-3.39.49-.79.09-.79.08-.79.9,0,17.46,0,34.91,0,52.37,0,.8,0,1.59.07,2.39.11,1.17.25,2.33.43,3.49.26,1.61.64,3.18,1.11,4.73.36,1.19.78,2.37,1.27,3.52.57,1.33,1.17,2.64,1.9,3.88.91,1.54,1.87,3.05,2.98,4.46.82,1.05,1.67,2.07,2.58,3.04,1.61,1.7,3.37,3.23,5.26,4.61,2.02,1.48,4.17,2.74,6.42,3.81,1.67.79,3.41,1.4,5.18,1.93,2.08.62,4.2,1.02,6.34,1.29,1.18.15,2.37.19,3.56.19,22.28,0,44.57,0,66.85,0,.56,0,1.14.06,1.69-.03,1.09-.17,2.19-.21,3.28-.38.93-.15,1.86-.33,2.78-.52,1.35-.28,2.67-.7,3.98-1.16.93-.33,1.85-.68,2.76-1.07,1.47-.63,2.87-1.38,4.24-2.19,2.55-1.51,4.85-3.33,7-5.36.72-.68,1.36-1.45,2.02-2.18,1.07-1.17,2.02-2.44,2.91-3.75,1.47-2.14,2.67-4.42,3.66-6.82.64-1.53,1.17-3.1,1.59-4.7.47-1.82.83-3.66,1.03-5.53.13-1.22.27-2.44.27-3.66.02-11.08,0-22.16,0-33.23Z"/>
</svg>